# xmcd CD database file
#
# Track frame offsets:
#	150
#	27599
#	54824
#	76724
#	105749
#	128399
#	163339
#	191539
#	217864
#	247714
#	267858
#
# Disc length: 4006 seconds
#
# Revision: 3
# Processed by: cddbd v1.5.2PL0 Copyright (c) Steve Scherf et al.
# Submitted via: CDex 1.70beta3
#
DISCID=800fa40b
DTITLE=下地勇 - 天
DYEAR=1900
DGENRE=Blues
TTITLE0=捨てぃうかでぃな
TTITLE1=カママンミ
TTITLE2=うう゛ゃーますむぬ
TTITLE3=野崎里
TTITLE4=家からバス停がみ
TTITLE5=関白宣言(ミャークフツバージョン)
TTITLE6=やっう゛ぃおじぃ
TTITLE7=おばぁ
TTITLE8=我達が生まり島
TTITLE9=ワイドー
TTITLE10=カママンミ(アコースティックバージョン)
EXTD=
EXTT0=
EXTT1=
EXTT2=
EXTT3=
EXTT4=
EXTT5=
EXTT6=
EXTT7=
EXTT8=
EXTT9=
EXTT10=
PLAYORDER=
